# Blender v2.90.1 OBJ File: 'artificialArm.blend'
# www.blender.org
o ArtificialArm_v5.002
v 0.079436 0.003187 -0.011448
v 0.075884 0.005341 -0.015000
v 0.079436 0.003187 0.036448
v 0.085884 -0.009181 -0.005000
v 0.085884 0.055459 -0.005000
v 0.075884 0.055459 -0.015000
v 0.085884 -0.009181 0.030000
v 0.085884 0.055459 0.030000
v 0.200000 0.055459 0.030000
v 0.116448 -0.067804 0.030000
v 0.116448 -0.067804 -0.005000
v 0.120000 -0.082300 0.030000
v 0.200000 -0.089596 0.030000
v 0.120000 -0.089596 0.030000
v 0.200000 0.055459 -0.005000
v 0.200000 -0.089596 -0.005000
v 0.120000 -0.082300 -0.005000
v 0.120000 -0.089596 -0.005000
v 0.075884 0.055459 0.040000
v 0.040000 0.055459 0.040000
v 0.040000 0.010000 0.040000
v 0.068201 0.010000 0.040000
v 0.040000 0.055459 -0.015000
v 0.040000 0.032107 0.033713
v 0.040000 0.037597 0.032990
v 0.040000 0.042713 0.030871
v 0.040000 0.047107 0.027500
v 0.040000 0.050478 0.023107
v 0.040000 0.052597 0.017990
v 0.040000 0.053320 0.012500
v 0.040000 0.052597 0.007010
v 0.044464 0.048263 0.008921
v 0.044487 0.048279 0.015857
v 0.043111 0.047267 0.022579
v 0.047833 0.042265 0.015857
v 0.046248 0.041630 0.022579
v 0.047875 0.035386 0.022579
v 0.044567 0.034959 0.028660
v 0.043152 0.040388 0.028660
v 0.040424 0.045291 0.028660
v 0.044579 0.029348 0.028660
v 0.040000 0.026616 0.032990
v 0.043187 0.023913 0.028660
v 0.047889 0.028935 0.022579
v 0.049584 0.028723 0.015857
v 0.049569 0.035605 0.015857
v 0.046288 0.022684 0.022579
v 0.047876 0.022055 0.015857
v 0.043175 0.017033 0.022579
v 0.040480 0.018998 0.028660
v 0.040000 0.021500 0.030871
v 0.040000 0.017107 0.027500
v 0.040000 0.013736 0.023107
v 0.040000 0.011616 0.017990
v 0.044555 0.016027 0.015857
v 0.040000 0.010894 0.012500
v 0.044532 0.016044 0.008921
v 0.040000 0.011616 0.007010
v 0.040000 0.010000 -0.015000
v 0.068201 0.010000 -0.015000
v 0.040000 0.032107 -0.008713
v 0.040000 0.026616 -0.007990
v 0.040000 0.021500 -0.005871
v 0.040000 0.017107 -0.002500
v 0.040000 0.013736 0.001893
v 0.043108 0.017082 0.002213
v 0.040373 0.019076 -0.003841
v 0.046211 0.022715 0.002213
v 0.043064 0.023961 -0.003841
v 0.044448 0.029364 -0.003841
v 0.044436 0.034942 -0.003841
v 0.047807 0.028945 0.002213
v 0.047793 0.035376 0.002213
v 0.049556 0.028726 0.008921
v 0.047850 0.022066 0.008921
v 0.049541 0.035602 0.008921
v 0.046171 0.041599 0.002213
v 0.047807 0.042255 0.008921
v 0.043044 0.047218 0.002213
v 0.040000 0.047107 -0.002500
v 0.040317 0.045213 -0.003841
v 0.040000 0.050478 0.001893
v 0.040000 0.042713 -0.005871
v 0.043029 0.040339 -0.003841
v 0.040000 0.037597 -0.007990
v 0.075884 0.005341 0.040000
vt 0.707107 3.762841
vt 0.204797 -1.464328
vt 0.707107 -1.248947
vt -1.144813 -0.656953
vt 3.644813 -0.656953
vt -1.500000 -0.241566
vt 3.644813 4.003036
vt -1.144813 4.003036
vt 3.000000 2.608249
vt -0.500000 2.608249
vt -0.707107 -2.701116
vt -0.707107 3.762841
vt 0.707107 -0.428166
vt 0.707107 6.035791
vt -0.204797 0.808622
vt -3.411600 7.525681
vt -3.411600 1.061724
vt 8.000000 7.525681
vt -0.355187 -4.800650
vt 3.000000 -4.003036
vt -0.500000 -4.003036
vt -0.500000 0.746225
vt 3.000000 -0.746225
vt 3.000000 0.746225
vt 8.000000 -6.979781
vt 0.000000 -6.250219
vt 14.505463 3.000000
vt 0.000000 3.000000
vt 14.505463 -0.500000
vt 0.000000 -6.979781
vt 8.000000 3.000000
vt 0.000000 3.000000
vt 8.000000 -0.500000
vt 0.000000 -0.500000
vt 0.355187 -4.800650
vt -8.000000 -6.979781
vt 0.000000 -6.250219
vt -8.000000 7.525681
vt 0.000000 -6.979781
vt 0.000000 -0.500000
vt 9.230000 -0.500000
vt 9.959563 -0.500000
vt 9.230000 3.000000
vt 9.959563 3.000000
vt -0.500000 -0.746225
vt 3.000000 -11.411600
vt -0.500000 0.000000
vt -0.500000 -11.411600
vt 3.411600 7.525681
vt 3.411600 1.061724
vt 3.000000 0.000000
vt -0.707107 6.035791
vt 4.000000 -16.000000
vt 4.000000 -12.411600
vt 1.789326 3.371320
vt 4.000000 4.000000
vt -0.545900 4.000000
vt -1.794200 -2.272950
vt 1.025900 -2.272950
vt -1.794200 2.272950
vt 1.794200 2.272950
vt -1.500000 -16.000000
vt -0.331994 1.250000
vt -0.545900 -1.500000
vt 1.240288 3.299038
vt 0.728666 3.087117
vt 0.289326 2.750000
vt -0.047791 2.310660
vt -0.259712 1.799038
vt -0.259712 0.700962
vt -0.552753 2.375863
vt -0.358916 1.744038
vt -0.000000 2.422809
vt 0.336515 1.744038
vt 0.552753 2.375863
vt 0.336515 1.048752
vt 1.031946 1.744038
vt 1.031946 1.048752
vt 1.031946 0.353465
vt 1.727378 0.353465
vt 1.727378 1.048752
vt 2.011832 1.498438
vt 2.311903 0.836029
vt 1.727378 1.744038
vt 1.586561 1.948722
vt 2.422809 -0.000000
vt 1.727378 -0.341822
vt 2.311903 -0.836029
vt 1.727378 -1.037109
vt 1.031946 -0.341822
vt 0.336515 -0.341822
vt 1.031946 -1.037109
vt 0.336515 0.353465
vt 0.336515 -1.037109
vt 1.031946 -1.732396
vt 1.727378 -1.732396
vt 2.011832 -1.498438
vt 1.586561 -1.948722
vt 3.289326 2.750000
vt 2.849987 3.087117
vt 1.088892 -2.226619
vt 3.626444 2.310660
vt 0.552753 -2.375863
vt 3.838365 1.799038
vt 0.336515 -1.732396
vt -0.000000 -2.422809
vt 3.910647 1.250000
vt -0.358916 -1.732396
vt -0.552753 -2.375863
vt 3.838365 0.700962
vt 4.000000 -1.500000
vt 1.794200 2.272950
vt -1.025900 -2.272950
vt 1.794200 -2.272950
vt 2.820100 -1.500000
vt 0.000000 4.000000
vt 0.000000 -1.500000
vt 1.789326 -0.871320
vt 2.338365 -0.799038
vt 2.849987 -0.587117
vt 3.289326 -0.250000
vt 3.626444 0.189340
vt -1.054347 -1.732396
vt -1.088892 -2.226619
vt -1.586561 -1.948722
vt -1.054347 -1.037109
vt -1.749778 -1.732396
vt -1.749778 -1.037109
vt -2.011832 -1.498438
vt -2.311903 -0.836029
vt -1.749778 -0.341822
vt -2.422809 0.000000
vt -1.749778 0.353465
vt -1.054347 -0.341822
vt -1.054347 0.353465
vt -0.358916 -0.341822
vt -0.358916 -1.037109
vt -0.358916 0.353465
vt -1.054347 1.048752
vt -0.358916 1.048752
vt -1.054347 1.744038
vt -1.586561 1.948722
vt -1.088892 2.226619
vt -1.749778 1.744038
vt -0.047791 0.189340
vt 0.289326 -0.250000
vt -2.011832 1.498438
vt -1.749778 1.048752
vt -2.311903 0.836029
vt 1.240288 -0.799038
vt 0.728666 -0.587117
vt -1.794200 -2.738838
vt -1.794200 2.272950
vt 4.000000 -0.241566
vt -1.500000 0.656953
vt 4.000000 0.656953
vt 2.820100 4.000000
vt -0.707107 1.024003
vt 1.794200 -2.738838
vt 2.338365 3.299038
vt 1.088892 2.226619
vt -1.500000 -12.411600
vn 0.7071 -0.0000 -0.7071
vn -0.5185 -0.8551 -0.0000
vn -0.8867 -0.4623 -0.0000
vn 0.7071 -0.0000 0.7071
vn 0.0000 -0.0000 1.0000
vn -0.9713 -0.2380 0.0000
vn 1.0000 0.0000 0.0000
vn 0.0000 -1.0000 0.0000
vn -0.0000 0.0000 -1.0000
vn -1.0000 -0.0000 0.0000
vn -0.0000 1.0000 0.0000
vn -0.6363 -0.7451 0.1997
vn -0.8057 -0.5805 0.1174
vn -0.6364 -0.7714 -0.0000
vn -0.7995 -0.5881 -0.1221
vn -0.6364 -0.7451 -0.1997
vn -0.9218 -0.3684 -0.1208
vn -0.7495 -0.5513 -0.3665
vn -0.8662 -0.3434 -0.3629
vn -0.9246 -0.1158 -0.3629
vn -0.8166 -0.1065 -0.5674
vn -0.7610 -0.3270 -0.5603
vn -0.6364 -0.3857 -0.6680
vn -0.6364 -0.1997 -0.7451
vn -0.5637 -0.4865 -0.6675
vn -0.6364 -0.5455 -0.5455
vn -0.6363 -0.0000 -0.7714
vn -0.8029 0.1003 -0.5876
vn -0.6364 0.1997 -0.7451
vn -0.7523 0.2980 -0.5876
vn -0.9258 0.1162 -0.3597
vn -0.9851 0.1231 -0.1197
vn -0.8650 0.3426 -0.3665
vn -0.9843 -0.1285 -0.1208
vn -0.9225 0.3666 -0.1209
vn -0.7729 0.5131 -0.3733
vn -0.6076 0.5295 -0.5920
vn -0.6364 0.3857 -0.6680
vn -0.6364 0.5455 -0.5455
vn -0.6364 0.6680 -0.3857
vn -0.6363 0.7451 -0.1996
vn -0.8020 0.5847 -0.1221
vn -0.6364 0.7714 0.0000
vn -0.8012 0.5841 0.1301
vn -0.6364 0.7451 0.1997
vn -0.7542 0.5313 0.3859
vn -0.6364 0.6680 0.3857
vn -0.6364 0.5454 0.5454
vn -0.8647 0.3429 0.3671
vn -0.6499 0.4738 0.5942
vn -0.7472 0.3122 0.5868
vn -0.6364 0.3857 0.6680
vn -0.6364 0.1996 0.7451
vn -0.7981 0.0997 0.5942
vn -0.6363 -0.0000 0.7714
vn -0.7977 -0.1031 0.5942
vn -0.9203 0.1150 0.3741
vn -0.9198 -0.1189 0.3740
vn -0.9839 0.1229 0.1301
vn -0.9218 0.3651 0.1301
vn -0.9833 -0.1271 0.1301
vn -0.8634 -0.3422 0.3708
vn -0.9203 -0.3690 0.1302
vn -0.7700 -0.5143 0.3776
vn -0.6364 -0.5455 0.5455
vn -0.6364 -0.6680 0.3857
vn -0.4490 -0.6069 0.6558
vn -0.6364 -0.3857 0.6680
vn -0.7609 -0.3266 0.5607
vn -0.6364 -0.1996 0.7451
vn -0.6364 -0.6680 -0.3857
s 1
f 6/1/1 1/2/1 2/3/1
f 1/4/2 3/5/2 2/6/2
f 3/7/3 1/8/3 7/9/3
f 7/9/3 1/8/3 4/10/3
f 4/11/1 1/2/1 5/12/1
f 5/12/1 1/2/1 6/1/1
f 7/13/4 8/14/4 3/15/4
f 8/16/5 7/17/5 9/18/5
f 9/18/5 7/17/5 10/19/5
f 7/9/3 4/10/3 10/20/3
f 10/20/3 4/10/3 11/21/3
f 11/22/6 12/23/6 10/24/6
f 13/25/5 10/19/5 12/26/5
f 9/18/5 10/19/5 13/25/5
f 9/27/7 13/28/7 15/29/7
f 13/25/5 12/26/5 14/30/5
f 13/31/8 14/32/8 16/33/8
f 15/29/7 13/28/7 16/34/7
f 11/35/9 16/36/9 17/37/9
f 11/35/9 15/38/9 16/36/9
f 17/37/9 16/36/9 18/39/9
f 16/33/8 14/32/8 18/40/8
f 17/41/10 18/42/10 12/43/10
f 12/43/10 18/42/10 14/44/10
f 17/45/6 12/23/6 11/22/6
f 8/46/11 15/47/11 5/48/11
f 5/49/9 15/38/9 4/50/9
f 4/50/9 15/38/9 11/35/9
f 9/51/11 15/47/11 8/46/11
f 3/15/4 8/14/4 19/52/4
f 8/46/11 20/53/11 19/54/11
f 5/48/11 20/53/11 8/46/11
f 24/55/10 21/56/10 20/57/10
f 21/58/5 22/59/5 20/60/5
f 20/60/5 22/59/5 19/61/5
f 5/48/11 23/62/11 20/53/11
f 30/63/10 20/57/10 23/64/10
f 24/55/10 20/57/10 25/65/10
f 25/65/10 20/57/10 26/66/10
f 26/66/10 20/57/10 27/67/10
f 27/67/10 20/57/10 28/68/10
f 28/68/10 20/57/10 29/69/10
f 29/69/10 20/57/10 30/63/10
f 30/63/10 23/64/10 31/70/10
f 31/71/12 32/72/13 30/73/14
f 30/73/14 32/72/13 33/74/15
f 30/73/14 33/74/15 29/75/16
f 32/72/13 35/76/17 33/74/15
f 29/75/16 33/74/15 34/77/18
f 33/74/15 36/78/19 34/77/18
f 35/76/17 36/78/19 33/74/15
f 35/76/17 37/79/20 36/78/19
f 37/79/20 38/80/21 36/78/19
f 36/78/19 39/81/22 34/77/18
f 36/78/19 38/80/21 39/81/22
f 26/82/23 39/81/22 25/83/24
f 26/82/23 40/84/25 39/81/22
f 34/77/18 39/81/22 40/84/25
f 25/83/24 39/81/22 38/80/21
f 27/85/26 40/84/25 26/82/23
f 27/85/26 34/77/18 40/84/25
f 25/83/24 38/80/21 24/86/27
f 24/86/27 38/80/21 41/87/28
f 37/79/20 41/87/28 38/80/21
f 24/86/27 41/87/28 42/88/29
f 42/88/29 41/87/28 43/89/30
f 41/87/28 44/90/31 43/89/30
f 44/90/31 41/87/28 37/79/20
f 44/90/31 45/91/32 47/92/33
f 45/91/32 44/90/31 46/93/34
f 46/93/34 44/90/31 37/79/20
f 43/89/30 44/90/31 47/92/33
f 47/92/33 45/91/32 48/94/35
f 47/92/33 48/94/35 49/95/36
f 50/96/37 47/92/33 49/95/36
f 43/89/30 47/92/33 50/96/37
f 51/97/38 50/96/37 52/98/39
f 51/97/38 43/89/30 50/96/37
f 52/98/39 50/96/37 49/95/36
f 52/99/10 21/56/10 51/100/10
f 52/98/39 49/95/36 53/101/40
f 53/102/10 21/56/10 52/99/10
f 53/101/40 49/95/36 54/103/41
f 54/104/10 21/56/10 53/102/10
f 54/103/41 49/95/36 55/105/42
f 54/103/41 55/105/42 56/106/43
f 56/107/10 21/56/10 54/104/10
f 56/106/43 55/105/42 57/108/44
f 56/106/43 57/108/44 58/109/45
f 58/110/10 59/111/10 56/107/10
f 56/107/10 59/111/10 21/56/10
f 23/112/9 60/113/9 59/114/9
f 60/115/8 21/116/8 59/117/8
f 61/118/10 23/64/10 59/111/10
f 61/118/10 59/111/10 62/119/10
f 62/119/10 59/111/10 63/120/10
f 63/120/10 59/111/10 64/121/10
f 64/121/10 59/111/10 65/122/10
f 65/122/10 59/111/10 58/110/10
f 58/109/45 66/123/46 65/124/47
f 65/124/47 66/123/46 64/125/48
f 58/109/45 57/108/44 66/123/46
f 57/108/44 68/126/49 66/123/46
f 64/125/48 66/123/46 67/127/50
f 66/123/46 69/128/51 67/127/50
f 68/126/49 69/128/51 66/123/46
f 63/129/52 69/128/51 62/130/53
f 63/129/52 67/127/50 69/128/51
f 62/130/53 69/128/51 70/131/54
f 68/126/49 70/131/54 69/128/51
f 62/130/53 70/131/54 61/132/55
f 61/132/55 70/131/54 71/133/56
f 70/131/54 72/134/57 71/133/56
f 72/134/57 70/131/54 68/126/49
f 71/133/56 72/134/57 73/135/58
f 72/134/57 74/136/59 73/135/58
f 74/136/59 72/134/57 75/137/60
f 75/137/60 72/134/57 68/126/49
f 48/94/35 74/136/59 75/137/60
f 75/137/60 68/126/49 57/108/44
f 55/105/42 75/137/60 57/108/44
f 48/94/35 75/137/60 55/105/42
f 73/135/58 74/136/59 76/138/61
f 74/136/59 45/91/32 76/138/61
f 45/91/32 74/136/59 48/94/35
f 73/135/58 76/138/61 77/139/62
f 77/139/62 76/138/61 78/140/63
f 76/138/61 46/93/34 78/140/63
f 76/138/61 45/91/32 46/93/34
f 77/139/62 78/140/63 79/141/64
f 79/141/64 78/140/63 32/72/13
f 78/140/63 35/76/17 32/72/13
f 78/140/63 46/93/34 35/76/17
f 80/142/65 79/141/64 82/143/66
f 80/142/65 81/144/67 79/141/64
f 81/144/67 77/139/62 79/141/64
f 82/143/66 79/141/64 32/72/13
f 82/145/10 23/64/10 80/146/10
f 82/143/66 32/72/13 31/71/12
f 31/70/10 23/64/10 82/145/10
f 83/147/68 81/144/67 80/142/65
f 83/147/68 84/148/69 81/144/67
f 84/148/69 77/139/62 81/144/67
f 85/149/70 84/148/69 83/147/68
f 85/149/70 71/133/56 84/148/69
f 71/133/56 73/135/58 84/148/69
f 84/148/69 73/135/58 77/139/62
f 85/150/10 23/64/10 61/118/10
f 61/132/55 71/133/56 85/149/70
f 83/151/10 23/64/10 85/150/10
f 80/146/10 23/64/10 83/151/10
f 64/125/48 67/127/50 63/129/52
f 2/152/9 60/113/9 6/153/9
f 2/6/2 86/154/2 60/155/2
f 60/155/2 86/154/2 22/156/2
f 22/157/8 21/116/8 60/115/8
f 6/153/9 60/113/9 23/112/9
f 2/6/2 3/5/2 86/154/2
f 3/15/4 19/52/4 86/158/4
f 19/61/5 22/59/5 86/159/5
f 49/95/36 48/94/35 55/105/42
f 51/100/10 21/56/10 42/160/10
f 42/88/29 43/89/30 51/97/38
f 46/93/34 37/79/20 35/76/17
f 42/160/10 21/56/10 24/55/10
f 29/75/16 34/77/18 28/161/71
f 28/161/71 34/77/18 27/85/26
f 6/162/11 23/62/11 5/48/11
